<svg width="20" height="21" viewBox="0 0 20 21" fill="none" xmlns="http://www.w3.org/2000/svg">
<g id="Password">
<path id="Password_2" fill-rule="evenodd" clip-rule="evenodd" d="M15.011 13.101C15.425 13.101 15.761 12.765 15.761 12.351V10.499C15.761 10.085 15.425 9.74902 15.011 9.74902H9.319C8.995 8.68202 8.013 7.89802 6.841 7.89802C5.407 7.89802 4.24 9.06502 4.24 10.499C4.24 11.934 5.407 13.101 6.841 13.101C8.013 13.101 8.995 12.317 9.319 11.249H11.431V12.351C11.431 12.765 11.767 13.101 12.181 13.101C12.595 13.101 12.931 12.765 12.931 12.351V11.249H14.261V12.351C14.261 12.765 14.597 13.101 15.011 13.101ZM5.666 0.499023H14.335C17.723 0.499023 20 2.87702 20 6.41602V14.583C20 18.122 17.723 20.499 14.334 20.499H5.666C2.277 20.499 0 18.122 0 14.583V6.41602C0 2.87702 2.277 0.499023 5.666 0.499023ZM5.7391 10.4999C5.7391 9.89192 6.2341 9.39792 6.8411 9.39792C7.4481 9.39792 7.9431 9.89192 7.9431 10.4999C7.9431 11.1069 7.4481 11.6009 6.8411 11.6009C6.2341 11.6009 5.7391 11.1069 5.7391 10.4999Z" fill="url(#paint0_linear_277_325)"/>
</g>
<defs>
<linearGradient id="paint0_linear_277_325" x1="20" y1="20.499" x2="0" y2="0.499023" gradientUnits="userSpaceOnUse">
<stop stop-color="#F4F4F4"/>
<stop offset="1" stop-color="#C1C1C1"/>
</linearGradient>
</defs>
</svg>
