<svg width="14" height="13" viewBox="0 0 14 13" fill="none" xmlns="http://www.w3.org/2000/svg">
<g id="Danger">
<path id="Danger_2" fill-rule="evenodd" clip-rule="evenodd" d="M8.65118 1.46139L13.497 9.87148C13.6037 10.1225 13.6503 10.3266 13.6637 10.5387C13.6903 11.0341 13.517 11.5157 13.1771 11.8863C12.8371 12.2556 12.3772 12.4736 11.8773 12.5H2.11894C1.91231 12.4874 1.70568 12.4405 1.51238 12.3679C0.545875 11.9781 0.0792874 10.8815 0.472554 9.93093L5.35173 1.45545C5.51837 1.15752 5.77166 0.900546 6.08494 0.735396C6.99146 0.23268 8.14459 0.56298 8.65118 1.46139ZM7.57802 7.00382C7.57802 7.32091 7.31807 7.58581 6.99812 7.58581C6.67818 7.58581 6.41155 7.32091 6.41155 7.00382V5.13498C6.41155 4.81724 6.67818 4.56026 6.99812 4.56026C7.31807 4.56026 7.57802 4.81724 7.57802 5.13498V7.00382ZM6.99812 9.84505C6.67818 9.84505 6.41155 9.58015 6.41155 9.26373C6.41155 8.94598 6.67818 8.68174 6.99812 8.68174C7.31807 8.68174 7.57802 8.94003 7.57802 9.25646C7.57802 9.58015 7.31807 9.84505 6.99812 9.84505Z" fill="#D84343"/>
</g>
</svg>
