<svg width="286" height="174" viewBox="0 0 286 174" fill="none" xmlns="http://www.w3.org/2000/svg">
<rect x="0.991829" y="0.772957" width="281.238" height="168.872" rx="6.24358" fill="white" stroke="#413F54" stroke-width="0.903061"/>
<g filter="url(#filter0_d_2217_5066)">
<mask id="path-2-inside-1_2217_5066" fill="white">
<path d="M1.44336 7.01655C1.44336 3.81769 4.03655 1.22449 7.23541 1.22449H275.986C279.185 1.22449 281.778 3.81768 281.778 7.01654V163.402C281.778 166.601 279.185 169.194 275.986 169.194H7.23541C4.03655 169.194 1.44336 166.601 1.44336 163.402V7.01655Z"/>
</mask>
<path d="M1.44336 7.01655C1.44336 3.81769 4.03655 1.22449 7.23541 1.22449H275.986C279.185 1.22449 281.778 3.81768 281.778 7.01654V163.402C281.778 166.601 279.185 169.194 275.986 169.194H7.23541C4.03655 169.194 1.44336 166.601 1.44336 163.402V7.01655Z" fill="#1E2024"/>
<path d="M1.44336 7.01654C1.44336 -2.58004 9.22292 -10.3596 18.8195 -10.3596H264.402C273.999 -10.3596 281.778 -2.58004 281.778 7.01654V12.8086C281.778 12.8086 279.185 12.8086 275.986 12.8086H7.23541C4.03655 12.8086 1.44336 12.8086 1.44336 12.8086V7.01654ZM281.778 169.194H1.44336H281.778ZM1.44336 169.194V1.22449V169.194ZM281.778 1.22449V169.194V1.22449Z" fill="black" mask="url(#path-2-inside-1_2217_5066)"/>
</g>
<line x1="13.0283" y1="60.8823" x2="269.037" y2="60.8823" stroke="#313131" stroke-width="1.15841"/>
<line x1="13.0283" y1="123.437" x2="269.037" y2="123.437" stroke="#313131" stroke-width="1.15841"/>
<line x1="97.0138" y1="29.0254" x2="97.0138" y2="156.45" stroke="#313131" stroke-width="1.15841"/>
<line x1="182.735" y1="29.0254" x2="182.735" y2="156.45" stroke="#313131" stroke-width="1.15841"/>
<rect x="22.2949" y="42.9276" width="40.5443" height="6.95046" rx="3.47523" fill="#383838" fill-opacity="0.5"/>
<rect x="109.176" y="42.9276" width="40.5443" height="6.95046" rx="3.47523" fill="#383838" fill-opacity="0.5"/>
<rect x="193.74" y="42.9276" width="40.5443" height="6.95046" rx="3.47523" fill="#383838" fill-opacity="0.5"/>
<rect x="22.2949" y="74.2049" width="28.9602" height="6.95046" rx="3.47523" fill="#383838" fill-opacity="0.5"/>
<rect x="193.74" y="74.2048" width="28.9602" height="6.95046" rx="3.47523" fill="#383838" fill-opacity="0.5"/>
<rect x="22.2949" y="105.482" width="61.3957" height="6.95046" rx="3.47523" fill="#383838" fill-opacity="0.5"/>
<rect x="193.74" y="105.482" width="40.5443" height="6.95046" rx="3.47523" fill="#383838" fill-opacity="0.5"/>
<rect x="22.2949" y="136.758" width="50.97" height="6.95046" rx="3.47523" fill="#383838" fill-opacity="0.5"/>
<rect x="109.176" y="136.758" width="50.97" height="6.95046" rx="3.47523" fill="#383838" fill-opacity="0.5"/>
<rect x="193.74" y="136.758" width="50.97" height="6.95046" rx="3.47523" fill="#383838" fill-opacity="0.5"/>
<path d="M140 63.6667C127.12 63.6667 116.667 74.12 116.667 87C116.667 99.88 127.12 110.333 140 110.333C152.88 110.333 163.334 99.88 163.334 87C163.334 74.12 152.88 63.6667 140 63.6667ZM135.334 95.1667V78.8333C135.334 77.8767 136.43 77.3167 137.2 77.9L148.097 86.0667C148.727 86.5333 148.727 87.4667 148.097 87.9333L137.2 96.1C136.43 96.6833 135.334 96.1233 135.334 95.1667Z" fill="#413F54"/>
<path d="M143 63.6667C130.12 63.6667 119.667 74.12 119.667 87C119.667 99.88 130.12 110.333 143 110.333C155.88 110.333 166.334 99.88 166.334 87C166.334 74.12 155.88 63.6667 143 63.6667ZM138.334 95.1667V78.8333C138.334 77.8767 139.43 77.3167 140.2 77.9L151.097 86.0667C151.727 86.5333 151.727 87.4667 151.097 87.9333L140.2 96.1C139.43 96.6833 138.334 96.1233 138.334 95.1667Z" fill="#4F4F4F"/>
<defs>
<filter id="filter0_d_2217_5066" x="1.44336" y="1.22449" width="284.453" height="172.087" filterUnits="userSpaceOnUse" color-interpolation-filters="sRGB">
<feFlood flood-opacity="0" result="BackgroundImageFix"/>
<feColorMatrix in="SourceAlpha" type="matrix" values="0 0 0 0 0 0 0 0 0 0 0 0 0 0 0 0 0 0 127 0" result="hardAlpha"/>
<feOffset dx="4.11796" dy="4.11796"/>
<feComposite in2="hardAlpha" operator="out"/>
<feColorMatrix type="matrix" values="0 0 0 0 0.254597 0 0 0 0 0.245503 0 0 0 0 0.329167 0 0 0 1 0"/>
<feBlend mode="normal" in2="BackgroundImageFix" result="effect1_dropShadow_2217_5066"/>
<feBlend mode="normal" in="SourceGraphic" in2="effect1_dropShadow_2217_5066" result="shape"/>
</filter>
</defs>
</svg>
