<svg width="20" height="19" viewBox="0 0 20 19" fill="none" xmlns="http://www.w3.org/2000/svg">
<g id="Show">
<path id="Show_2" fill-rule="evenodd" clip-rule="evenodd" d="M10.2882 1.00482L10.002 1C5.86108 1 2.12926 3.92308 0.0609149 8.70583C-0.020305 8.89364 -0.020305 9.10636 0.0609149 9.29416L0.204239 9.61679C2.24638 14.0931 5.77544 16.8644 9.71179 16.9952L9.998 17C14.1389 17 17.8707 14.0769 19.9391 9.29416C20.0213 9.10399 20.0202 8.88839 19.9361 8.69904L19.7968 8.38563C17.7497 3.90091 14.2192 1.13547 10.2882 1.00482ZM10.009 2.48942L10.2479 2.49456L10.5149 2.50845C13.7122 2.73484 16.6525 5.10553 18.429 8.99911L18.4197 9.02313C16.5987 13.0005 13.5569 15.3853 10.2589 15.505L10.004 15.5088L9.74693 15.5054L9.48061 15.4915C6.38271 15.2721 3.52637 13.0344 1.73914 9.3597L1.57 8.99911L1.72658 8.66619C3.61117 4.77315 6.69148 2.49027 10.009 2.48942ZM9.9995 5.11346C7.8391 5.11346 6.0885 6.85313 6.0885 9.0002C6.0885 11.1465 7.83929 12.8859 9.9995 12.8859C12.1598 12.8859 13.9115 11.1463 13.9115 9.0002C13.9115 6.85325 12.16 5.11346 9.9995 5.11346ZM9.9995 6.60378C11.3317 6.60378 12.4115 7.6764 12.4115 9.0002C12.4115 10.3231 11.3316 11.3956 9.9995 11.3956C8.66771 11.3956 7.5885 10.3234 7.5885 9.0002C7.5885 7.67614 8.6676 6.60378 9.9995 6.60378Z" fill="#808080"/>
<rect id="Rectangle 4735" x="17.9707" width="2" height="24" rx="1" transform="rotate(45 17.9707 0)" fill="#808080"/>
</g>
</svg>
