<svg width="20" height="20" viewBox="0 0 20 20" fill="none" xmlns="http://www.w3.org/2000/svg">
<path fill-rule="evenodd" clip-rule="evenodd" d="M10 12.0833C9.16881 12.0833 8.45664 11.7946 7.94694 11.2131C7.43241 10.626 7.08333 9.69339 7.08333 8.33333C7.08333 6.68091 8.22485 5.41667 10 5.41667C11.7466 5.41667 12.9167 6.79469 12.9167 8.5C12.9167 9.79278 12.5663 10.6819 12.0524 11.2436C11.5411 11.8025 10.8264 12.0833 10 12.0833ZM7.91667 8.33333C7.91667 9.31512 8.09111 10.0488 8.46489 10.5436C8.85745 11.0633 9.41467 11.25 10 11.25C10.5772 11.25 11.1308 11.0739 11.5258 10.5839C11.9058 10.1124 12.0833 9.41668 12.0833 8.5C12.0833 7.89353 11.8926 7.33231 11.5254 6.91691C11.1541 6.49681 10.6226 6.25 10 6.25C9.38028 6.25 8.84847 6.45194 8.47201 6.83971C8.09747 7.22549 7.91667 7.75395 7.91667 8.33333Z" fill="#4F4F4F"/>
<path fill-rule="evenodd" clip-rule="evenodd" d="M10 18.75C5.16751 18.75 1.25 14.8325 1.25 10C1.25 5.16751 5.16751 1.25 10 1.25C14.8325 1.25 18.75 5.16751 18.75 10C18.75 14.8325 14.8325 18.75 10 18.75ZM15.834 14.522L16.1809 14.9803L16.5086 14.5081C17.3963 13.2286 17.9167 11.6745 17.9167 10C17.9167 5.62775 14.3723 2.08333 10 2.08333C5.62775 2.08333 2.08333 5.62775 2.08333 10C2.08333 11.6745 2.60365 13.2286 3.49142 14.5081L3.81906 14.9803L4.16596 14.522C4.55749 14.0049 5.24381 13.5978 6.2449 13.3225C7.24178 13.0483 8.50805 12.9167 10 12.9167C11.492 12.9167 12.7582 13.0483 13.7551 13.3225C14.7562 13.5978 15.4425 14.0049 15.834 14.522ZM15.2468 15.9284L15.4418 15.7557L15.372 15.5048C15.1874 14.8411 14.4877 14.4219 13.6293 14.1637C12.7348 13.8946 11.5082 13.75 10 13.75C8.49179 13.75 7.26518 13.8946 6.37071 14.1637C5.51235 14.4219 4.81259 14.8411 4.628 15.5048L4.55822 15.7557L4.75318 15.9284C6.14975 17.1653 7.98764 17.9167 10 17.9167C12.0124 17.9167 13.8502 17.1653 15.2468 15.9284Z" fill="#4F4F4F"/>
</svg>
